PathFileType	4	(X/Y/Z)	36_2_rein_106_p1_0-491.trc
DataRate	CameraRate	NumFrames	NumMarkers	Units	OrigDataRate	OrigDataStartFrame	OrigNumFrames
51.0	51.0	4	27	m	51.0	0	492
Frame#	Time	RHip			RKnee			RAnkle			RBigToe			RSmallToe			RHeel			LHip			LKnee			LAnkle			LBigToe			LSmallToe			LHeel			Neck			Head			Nose			RShoulder			RElbow			RWrist			RThumb			RIndex			RPinky			LShoulder			LElbow			LWrist			LThumb			LIndex			LPinky			
		X1	Y1	Z1	X2	Y2	Z2	X3	Y3	Z3	X4	Y4	Z4	X5	Y5	Z5	X6	Y6	Z6	X7	Y7	Z7	X8	Y8	Z8	X9	Y9	Z9	X10	Y10	Z10	X11	Y11	Z11	X12	Y12	Z12	X13	Y13	Z13	X14	Y14	Z14	X15	Y15	Z15	X16	Y16	Z16	X17	Y17	Z17	X18	Y18	Z18	X19	Y19	Z19	X20	Y20	Z20	X21	Y21	Z21	X22	Y22	Z22	X23	Y23	Z23	X24	Y24	Z24	X25	Y25	Z25	X26	Y26	Z26	X27	Y27	Z27	
0	0.0	0.330714316510153	0.5419503984901259	-0.1787848356836866	0.3564898434112008	0.6577786521384675	0.26508105352525085	0.3833497905328053	0.7519574243418539	0.7213750884780151	0.32142815209005027	0.50148339845973	0.7418012061176786	0.39399826761733453	0.5479005408609747	0.7486107100249668	0.35790192522941683	0.8426993262893235	0.7808397337220924	0.12284686002552331	0.5466399228663765	-0.1363798675345579	0.1416548281168865	0.6653442070978385	0.30307283666794144	0.1679957054471684	0.7260147041104726	0.7144379657241609	0.18368851708203238	0.5208144040613993	0.7501916849895649	0.13331704671305786	0.5657574206056656	0.7717644821369581	0.1898775602732217	0.7827386168097769	0.7895895775423968	0.17493043694510296	0.4783706412566587	-0.7663094253885472	0.1468808538017242	0.40338484583041095	-1.0356327745954381	0.15505863616889254	0.33436238685123254	-0.8719537207995208	0.3497576522916211	0.5291751092731898	-0.6971149080133245	0.4051603421613102	0.4801924505005125	-0.41821092518590713	0.26646603959401516	0.3676480907196976	-0.18562094517471034	0.16443171190323727	0.34337495788375494	-0.08915521645831484	0.1731475186313	0.36921073347595973	-0.06537262674868302	0.20346306142335108	0.4110167819480143	-0.04681809927653795	0.0053173873410106934	0.49112934468892433	-0.6818356766686052	0.01641997606212718	0.4902878321459388	-0.38559393064089686	0.1613681658504787	0.3995345651610305	-0.16379823500558957	0.22660067685129653	0.36466712593670053	-0.09162106399970488	0.21482353171873717	0.3749943094237562	-0.06841246096318417	0.1845658787391256	0.3947938499319578	-0.05655516208619031
1	0.0196078431372549	0.3301327346441709	0.5425323277521319	-0.18268595193573978	0.355722605451663	0.6586224818041508	0.26098865191718756	0.3879832142849579	0.7537508208413185	0.7213943114655965	0.32595468283191065	0.5048794365018715	0.742754415276888	0.4049023280623188	0.5451683730705189	0.741495569692296	0.3624067462678117	0.8455713640223639	0.7813826901426145	0.1219839787737516	0.5472024020202378	-0.1438010105245518	0.1411724321568629	0.6654140656424046	0.29888468840483207	0.17147516974484178	0.7293363223317461	0.7108178074696245	0.18656262804127036	0.5346468577477035	0.7562028389376495	0.13343720933136538	0.5662690015530284	0.7633599857483545	0.18960592725434947	0.7855030457216478	0.7856297874894613	0.17133564651702213	0.4659026613814031	-0.7689590199449815	0.14691691930916076	0.40287091466090885	-1.0357720046795726	0.15135513337921247	0.3453417691636686	-0.8695666241757779	0.3461993799552916	0.5427058780240264	-0.6967598262534359	0.40496257591788953	0.48011026709696836	-0.4181199639712932	0.26179492212560623	0.3910709786651538	-0.1811153889880203	0.177790995364862	0.39602258217917763	-0.08401121670963387	0.17605324278722992	0.4081955348494648	-0.057217440509204916	0.19834796341122937	0.4227248991482777	-0.047460629600359135	0.004975131338774512	0.4910775281534137	-0.6855647663574048	0.01602183622306822	0.4911266961755914	-0.3893495031753666	0.15611018564682522	0.4127266677871025	-0.165133929808797	0.22450443031829623	0.37334677292455726	-0.09836777381719099	0.21358461371611054	0.3854010275464664	-0.06637866926840597	0.18859395054983943	0.39679915034704205	-0.060298786002815255
2	0.0392156862745098	0.33011085340703483	0.5425430331367027	-0.18287457312801694	0.35536566664913594	0.6590753469769416	0.2648973904459725	0.38793827484797105	0.753675481876699	0.7214153906247273	0.32770972492937395	0.5164053010049876	0.7398141809549046	0.40497138697243806	0.5454561037093915	0.7415401844210034	0.3622184027874226	0.8453373337192035	0.7814176956582903	0.12174641996712819	0.5472454772745166	-0.14400260522298008	0.14108899873729264	0.6654267382828157	0.29894748228146445	0.16709321652067471	0.7265013239544817	0.710035852720366	0.18375384130868078	0.5210723387994073	0.7500643583654212	0.13334477525760186	0.5661664767032678	0.7633466025680576	0.18819027546890296	0.7831798833634415	0.7816093980625125	0.17497592879032786	0.4783275947734057	-0.766188643753661	0.14696199467386634	0.4032346085742563	-1.0356985924413837	0.15508847528942565	0.33441952852258844	-0.8718897608085082	0.3497434266801683	0.5290645220905577	-0.6971156597198432	0.40509952871262167	0.48036547519194145	-0.41828208840295894	0.26613510151216424	0.3919326348843861	-0.1849426230970008	0.1762982148435611	0.39826120069107984	-0.09306245703667775	0.17900236541036052	0.4203013513713795	-0.055042310169032244	0.19842253657003858	0.42314199170711164	-0.04740212773194683	0.007451697198946266	0.5028792271057009	-0.6859617300377918	0.01606446055859776	0.4910244020385166	-0.3893382941317341	0.15596004009655468	0.4128226679565562	-0.16518661858526307	0.22446541629186956	0.372957930149703	-0.09859603891694052	0.2136961907520392	0.3854868866418171	-0.0662302177709254	0.19135542095662167	0.40901214220475224	-0.06135178693849067
3	0.058823529411764705	0.32617260130607145	0.5566188576902246	-0.17989075827806147	0.3554542586420399	0.6587653810100828	0.26465232328697946	0.3879312067546473	0.7537829800007972	0.7213861536674996	0.32412698020921854	0.5027006509134281	0.7383455219668541	0.40447420535840956	0.5447830501432367	0.7417032092057191	0.36213649331422865	0.845209211822592	0.781383990396876	0.11709904981338429	0.5613955838186945	-0.13757971800149882	0.14058095124738262	0.6658689152512519	0.3029570687719904	0.16698963366527694	0.726199973126769	0.7099340109407685	0.18376751873147557	0.5210393120600232	0.7500493759323036	0.13334450025167213	0.5662628524863348	0.7634071961207736	0.18807301664334428	0.7834208310487265	0.7821970495976314	0.17500490385929898	0.4783987752994378	-0.7662089632595486	0.1469619144851057	0.40330371830971906	-1.0358186683008188	0.15549192919660654	0.33495347077192544	-0.8689021176003592	0.34976765089819495	0.5289705458522838	-0.6971128154769579	0.4084864184982861	0.48097040761513576	-0.42209524889190564	0.26958138313009705	0.4040234031050302	-0.18321559308785285	0.17738585796572057	0.3986695282684907	-0.09435490178624005	0.17976172281901556	0.4222814398914493	-0.05120838594966955	0.20772356400688136	0.4397493614195689	-0.032382241885447	0.007474884586637218	0.5029966596876772	-0.6859708374927452	0.016630269959290782	0.4913052038685343	-0.3855789547774499	0.15236050219232347	0.42737131215797375	-0.15814118979351227	0.22835746078618221	0.37562044793784066	-0.09820687652963325	0.21369517047298567	0.3864742844638782	-0.06559790092641474	0.1929127904053553	0.4098716344626226	-0.054128943764474004
